# xmcd CD database file generated by Grip 3.0.7
# 
# Track frame offsets:
#       150
#       10871
#       23730
#       42276
#       54104
#       72396
#       90634
#       107417
#       118969
#       137270
#       156140
#       171186
# 
# Disc length: 2523 seconds
# 
# Revision: 2
# Processed by: cddbd v1.5.2PL0 Copyright (c) Steve Scherf et al.
# Submitted via: Grip 3.0.7
# 
DISCID=8f09d90c
DTITLE=King of Spain - Battleships and Aeroplanes
DYEAR=2008
DGENRE=Rock
TTITLE0=NY
TTITLE1=Can I Touch?
TTITLE2=Not the Machine
TTITLE3=Menagerie
TTITLE4=Flying Machine
TTITLE5=Bacon
TTITLE6=Em Song
TTITLE7=Ten More Minutes
TTITLE8=Record Girl
TTITLE9=Hit the Hay
TTITLE10=Soup of the Day
TTITLE11=No-one Knows You
EXTD=
EXTT0=
EXTT1=
EXTT2=
EXTT3=
EXTT4=
EXTT5=
EXTT6=
EXTT7=
EXTT8=
EXTT9=
EXTT10=
EXTT11=
PLAYORDER=
